<?xml version="1.0" encoding="UTF-8"?>
<svg id="_图层_1" data-name="图层 1" xmlns="http://www.w3.org/2000/svg" viewBox="0 0 4101.48 4101.04">
  <path d="M41.98,4101.04c-11.32,0-21.13-.26-29.08-.84l-1.71-.12-.5-1.64c-10.96-36.06-11.55-94.31-10.11-136.82,1.58-46.63,6.44-100.19,13-143.27,12.96-85.14,9.87-171.7,6.87-255.41-1.33-37.17-2.71-75.61-2.71-113.82,0-75.14-1.07-150.86-2.11-224.09-2.22-157.29-4.53-319.94,3.93-480.4,14.38-272.97,17.34-559.86,8.55-829.66-9.95-305.5-13.42-575.44,1.93-899.81,3.38-71.44,2.14-116.32.83-163.84-1.11-40.29-2.26-81.95-.71-142.96.35-13.72.79-29.61,1.27-47.04,2.93-106.67,7.37-267.88,3.46-350.28-2.58-54.38-10.06-234.4,1.8-267.97l.44-1.26,1.29-.33c106.26-27.23,227.03-15.35,343.83-3.85,72.96,7.18,148.42,14.61,218.95,12.25,125.78-4.2,233.81-12.4,338.29-20.33,174.63-13.26,339.57-25.78,551.71-15.82,197.43,9.27,532.31,12.29,729.08,1.02,85.86-4.92,167.66-1.86,246.77,1.09,105.52,3.94,205.19,7.66,314.66-5.71,146.86-17.94,283.55-8.59,428.27,1.31,55.27,3.78,112.42,7.69,170.2,9.95,74.34,2.91,171.79,1.4,266.04-.05,68.27-1.06,132.76-2.05,186.09-1.38,12.61.16,35.51-.81,62.01-1.92,78.35-3.31,185.66-7.83,205.68,7.28l1.48,1.12-.64,1.74c-23.25,63.05-16.1,167.38-9.78,259.44,2.54,36.99,4.93,71.93,4.93,100.01,0,56.37,1.25,115.86,2.46,173.39,2.7,128.55,5.5,261.48-4.45,384.71-18.09,224.06-12.87,466.95-7.83,701.85,2.36,109.89,4.59,213.7,4.61,316.12.03,141.24.88,274.06,1.69,402.51,2.33,365.11,4.52,709.98-14.07,1117.88-4.11,90.1-9.73,213.49,4.22,306.36,4.44,29.57,8.78,93.48,8.07,153.68-.62,53.01-5.28,122.18-23.92,150.69l-1.7,2.6-2.18-2.21c-2.74-2.79-19.51-9.02-115.67-6.61-55.88,1.4-117.93,5.25-143.92,7.35-114.07,9.22-200.83,1.9-301.29-6.57-42.39-3.58-86.22-7.27-135.23-9.97-43.67-2.4-86.02,2.84-126.97,7.91-37.04,4.58-75.35,9.32-115.05,8.56-42.24-.81-86.98-6.28-130.26-11.57-61.27-7.49-124.63-15.23-183.63-10.33-110.58,9.2-237.87,10.93-389.16,5.27-115.77-4.33-234.2-2.38-348.74-.5-104.85,1.72-213.27,3.5-319.96.5-57.21-1.61-115.57,3.35-172,8.16-67.88,5.77-138.06,11.74-206.84,6.33-84.76-6.67-154.04-3.83-221.05-1.09-63.62,2.6-129.4,5.3-209.23.07-91.33-5.97-163.56-5.6-240.03-5.2-74.75.39-152.05.79-255.88-4.43-39.08-1.97-120.52,3.13-206.73,8.52-74.28,4.65-150.62,9.42-199.29,9.42ZM14.98,4095.34c42.63,2.76,135.82-3.07,225.97-8.71,86.36-5.4,167.93-10.5,207.29-8.52,103.69,5.22,180.92,4.82,255.61,4.43,76.57-.4,148.88-.78,240.39,5.21,79.57,5.21,145.22,2.52,208.7-.08,67.15-2.75,136.59-5.59,221.64,1.1,68.37,5.38,138.35-.58,206.02-6.33,56.57-4.81,115.07-9.79,172.57-8.17,106.58,3,214.94,1.22,319.74-.51,114.6-1.88,233.1-3.83,349,.51,151.08,5.65,278.17,3.93,388.56-5.25,59.5-4.96,123.12,2.82,184.65,10.34,43.15,5.27,87.76,10.73,129.75,11.53,39.37.75,77.48-3.96,114.34-8.52,41.17-5.09,83.74-10.36,127.86-7.94,49.08,2.7,92.95,6.4,135.38,9.98,100.24,8.46,186.8,15.76,300.46,6.57,27.08-2.19,87.83-5.96,144.2-7.37,89.23-2.23,110.63,2.86,116.88,6.23,16.82-28.82,21.11-94.79,21.71-145.76.71-59.94-3.6-123.5-8.02-152.88-14.03-93.35-8.39-217.03-4.27-307.33,18.58-407.77,16.39-752.58,14.06-1117.62-.82-128.46-1.66-261.29-1.69-402.54-.02-102.37-2.25-206.15-4.61-316.01-5.04-235.02-10.26-478.04,7.85-702.36,9.93-122.98,7.14-255.78,4.44-384.21-1.21-57.56-2.46-117.07-2.46-173.49,0-27.91-2.39-62.77-4.92-99.67-6.29-91.66-13.41-195.43,9.4-259.64-22.43-12.82-129.5-8.3-200.94-5.29-26.58,1.12-49.53,2.09-62.28,1.93-53.26-.67-117.71.32-185.95,1.38-94.31,1.46-191.83,2.97-266.31.05-57.85-2.27-115.03-6.18-170.34-9.96-144.47-9.88-280.93-19.22-427.32-1.34-109.87,13.42-209.73,9.69-315.46,5.74-78.99-2.95-160.68-6-246.3-1.1-196.93,11.28-532.05,8.25-729.61-1.02-211.83-9.94-376.63,2.57-551.1,15.81-104.53,7.94-212.61,16.14-338.5,20.34-70.87,2.37-146.48-5.08-219.61-12.27-115.88-11.4-235.69-23.2-340.77,3.38-10.98,35.78-3.65,211.32-1.11,264.82,3.91,82.6-.52,243.91-3.46,350.66-.48,17.43-.92,33.31-1.27,47.03-1.55,60.87-.4,102.47.71,142.69,1.32,47.61,2.56,92.58-.83,164.21-15.35,324.21-11.87,594.03-1.93,899.41,8.79,269.94,5.83,556.98-8.56,830.09-8.44,160.29-6.14,322.85-3.92,480.06,1.04,73.25,2.11,148.99,2.11,224.16,0,38.12,1.37,76.51,2.7,113.64,3.01,83.94,6.11,170.74-6.92,256.34-11.19,73.51-21.92,212.73-3.53,276.23Z"/>
</svg>