<?xml version="1.0" standalone="no"?>
<!DOCTYPE svg PUBLIC "-//W3C//DTD SVG 20010904//EN"
 "http://www.w3.org/TR/2001/REC-SVG-20010904/DTD/svg10.dtd">
<svg version="1.0" xmlns="http://www.w3.org/2000/svg"
 width="194.000000pt" height="191.000000pt" viewBox="0 0 194.000000 191.000000"
 preserveAspectRatio="xMidYMid meet">
<metadata>
Created by potrace 1.10, written by Peter Selinger 2001-2011
</metadata>
<g transform="translate(0.000000,191.000000) scale(0.100000,-0.100000)"
fill="#000000" stroke="none">
<path d="M0 955 l0 -955 970 0 970 0 0 955 0 955 -970 0 -970 0 0 -955z m125
905 c4 -7 305 -10 870 -10 592 0 866 -3 870 -10 11 -18 12 -100 14 -944 1
-669 -1 -812 -12 -823 -11 -11 -166 -14 -890 -13 -482 0 -882 3 -890 6 -33 12
-37 76 -37 581 0 275 3 662 7 861 l6 362 28 0 c15 0 31 -4 34 -10z"/>
<path d="M132 955 l2 -815 833 0 833 0 0 573 c0 316 3 682 7 815 l6 242 -842
0 -842 0 3 -815z m1428 727 l145 -7 -3 -555 c-3 -726 -9 -895 -31 -919 -15
-17 -31 -17 -261 -10 -135 4 -450 12 -700 19 -374 9 -458 14 -470 26 -13 13
-16 112 -20 732 -3 394 -2 719 2 722 9 7 1161 0 1338 -8z"/>
<path d="M640 1495 l0 -115 -75 0 c-67 0 -75 2 -75 19 0 14 8 21 25 23 22 3
14 12 -72 79 l-98 76 -5 -457 c-4 -331 -8 -461 -17 -471 -21 -26 -27 -112 -9
-146 23 -46 65 -92 99 -110 46 -23 150 -20 186 7 40 28 132 27 198 -1 77 -33
141 -36 199 -8 46 22 63 24 269 27 247 4 244 3 286 84 18 35 19 63 19 408 0
351 -1 373 -20 410 -30 59 -57 64 -360 56 l-255 -6 -135 120 c-74 65 -141 119
-147 120 -10 0 -13 -29 -13 -115z m510 -594 c0 -281 -3 -422 -10 -426 -6 -4
-17 -1 -25 5 -13 11 -15 75 -15 420 0 223 3 410 7 413 3 4 15 7 25 7 17 0 18
-19 18 -419z m90 0 c0 -281 -3 -422 -10 -426 -6 -4 -17 -1 -25 5 -13 11 -15
75 -15 420 0 223 3 410 7 413 3 4 15 7 25 7 17 0 18 -19 18 -419z m90 0 c0
-281 -3 -422 -10 -426 -6 -4 -17 -1 -25 5 -13 11 -15 75 -15 420 0 223 3 410
7 413 3 4 15 7 25 7 17 0 18 -19 18 -419z m90 0 c0 -281 -3 -422 -10 -426 -6
-4 -17 -1 -25 5 -13 11 -15 75 -15 420 0 223 3 410 7 413 3 4 15 7 25 7 17 0
18 -19 18 -419z m90 0 c0 -281 -3 -422 -10 -426 -6 -4 -17 -1 -25 5 -13 11
-15 75 -15 420 0 223 3 410 7 413 3 4 15 7 25 7 17 0 18 -19 18 -419z"/>
</g>
</svg>
